<mxfile host="app.diagrams.net" agent="Mozilla/5.0 (Macintosh; Intel Mac OS X 10_15_7) AppleWebKit/537.36 (KHTML, like Gecko) Chrome/135.0.0.0 Safari/537.36" version="27.0.6">
  <diagram name="Page-1" id="yG-55oTZC-rXzrGc-pFj">
    <mxGraphModel dx="1205" dy="784" grid="1" gridSize="10" guides="1" tooltips="1" connect="1" arrows="1" fold="1" page="1" pageScale="1" pageWidth="850" pageHeight="1100" math="0" shadow="0">
      <root>
        <mxCell id="0" />
        <mxCell id="1" parent="0" />
        <mxCell id="NcWsjzNoAgIH2NNssZIe-1" value="&lt;h1&gt;Dropdown&lt;/h1&gt;" style="text;html=1;align=center;verticalAlign=middle;resizable=0;points=[];autosize=1;strokeColor=none;fillColor=none;" vertex="1" parent="1">
          <mxGeometry x="370" y="8" width="140" height="70" as="geometry" />
        </mxCell>
        <mxCell id="NcWsjzNoAgIH2NNssZIe-2" value="&lt;h2&gt;Functional Requirements&lt;/h2&gt;&lt;div&gt;&lt;ol&gt;&lt;li style=&quot;text-align: left;&quot;&gt;support multiple submenus&lt;/li&gt;&lt;li style=&quot;text-align: left;&quot;&gt;support text for menu items&lt;/li&gt;&lt;li style=&quot;text-align: left;&quot;&gt;support styling&lt;/li&gt;&lt;/ol&gt;&lt;/div&gt;" style="text;html=1;align=center;verticalAlign=middle;resizable=0;points=[];autosize=1;strokeColor=none;fillColor=none;" vertex="1" parent="1">
          <mxGeometry x="70" y="60" width="240" height="120" as="geometry" />
        </mxCell>
        <mxCell id="NcWsjzNoAgIH2NNssZIe-3" value="&lt;h2&gt;Non-Functional Requirements&lt;/h2&gt;&lt;div&gt;&lt;ul&gt;&lt;li style=&quot;text-align: left;&quot;&gt;accessibility: screen readers, keyboard&lt;/li&gt;&lt;li style=&quot;text-align: left;&quot;&gt;responsive/mobile support&lt;/li&gt;&lt;li style=&quot;text-align: left;&quot;&gt;correct positioning&lt;/li&gt;&lt;/ul&gt;&lt;/div&gt;" style="text;html=1;align=center;verticalAlign=middle;resizable=0;points=[];autosize=1;strokeColor=none;fillColor=none;" vertex="1" parent="1">
          <mxGeometry x="510" y="60" width="280" height="120" as="geometry" />
        </mxCell>
        <mxCell id="NcWsjzNoAgIH2NNssZIe-4" value="&lt;h2&gt;High Level Design/Architecture&lt;/h2&gt;" style="text;html=1;align=center;verticalAlign=middle;resizable=0;points=[];autosize=1;strokeColor=none;fillColor=none;" vertex="1" parent="1">
          <mxGeometry x="280" y="170" width="290" height="60" as="geometry" />
        </mxCell>
        <mxCell id="NcWsjzNoAgIH2NNssZIe-5" value="A. Pass in menu items data:" style="text;html=1;align=center;verticalAlign=middle;resizable=0;points=[];autosize=1;strokeColor=none;fillColor=none;" vertex="1" parent="1">
          <mxGeometry x="55" y="238" width="170" height="30" as="geometry" />
        </mxCell>
        <mxCell id="NcWsjzNoAgIH2NNssZIe-6" value="&lt;pre&gt;&lt;font style=&quot;font-size: 11px; background-color: light-dark(#ffffff, var(--ge-dark-color, #121212));&quot;&gt;&lt;span style=&quot;color: rgb(68, 68, 68); font-family: &amp;quot;Lucida Console&amp;quot;, Courier, monospace; font-style: normal; font-variant-ligatures: normal; font-variant-caps: normal; font-weight: 400; letter-spacing: normal; orphans: 2; text-indent: 0px; text-transform: none; widows: 2; word-spacing: 0px; -webkit-text-stroke-width: 0px; white-space: pre; text-decoration-thickness: initial; text-decoration-style: initial; text-decoration-color: initial; float: none; display: inline !important;&quot;&gt;  &lt;/span&gt;&lt;span style=&quot;box-sizing: border-box; color: rgb(68, 68, 68); font-family: &amp;quot;Lucida Console&amp;quot;, Courier, monospace; font-style: normal; font-variant-ligatures: normal; font-variant-caps: normal; letter-spacing: normal; orphans: 2; text-indent: 0px; text-transform: none; widows: 2; word-spacing: 0px; -webkit-text-stroke-width: 0px; white-space: pre; text-decoration-thickness: initial; text-decoration-style: initial; text-decoration-color: initial; font-weight: 700;&quot;&gt;const&lt;/span&gt;&lt;span style=&quot;color: rgb(68, 68, 68); font-family: &amp;quot;Lucida Console&amp;quot;, Courier, monospace; font-style: normal; font-variant-ligatures: normal; font-variant-caps: normal; font-weight: 400; letter-spacing: normal; orphans: 2; text-indent: 0px; text-transform: none; widows: 2; word-spacing: 0px; -webkit-text-stroke-width: 0px; white-space: pre; text-decoration-thickness: initial; text-decoration-style: initial; text-decoration-color: initial; float: none; display: inline !important;&quot;&gt; items = {&lt;br&gt;    &lt;/span&gt;&lt;/font&gt;&lt;/pre&gt;&lt;font style=&quot;font-size: 11px; background-color: light-dark(#ffffff, var(--ge-dark-color, #121212));&quot;&gt;&lt;span style=&quot;color: rgb(68, 68, 68); font-family: &amp;quot;Lucida Console&amp;quot;, Courier, monospace; font-style: normal; font-variant-ligatures: normal; font-variant-caps: normal; font-weight: 400; letter-spacing: normal; orphans: 2; text-indent: 0px; text-transform: none; widows: 2; word-spacing: 0px; -webkit-text-stroke-width: 0px; white-space: pre; text-decoration-thickness: initial; text-decoration-style: initial; text-decoration-color: initial; float: none; display: inline !important;&quot;&gt;    &lt;/span&gt;&lt;span style=&quot;box-sizing: border-box; font-family: &amp;quot;Lucida Console&amp;quot;, Courier, monospace; font-style: normal; font-variant-ligatures: normal; font-variant-caps: normal; letter-spacing: normal; orphans: 2; text-indent: 0px; text-transform: none; widows: 2; word-spacing: 0px; -webkit-text-stroke-width: 0px; white-space: pre; text-decoration-thickness: initial; text-decoration-style: initial; text-decoration-color: initial; color: rgb(136, 0, 0); font-weight: 700;&quot;&gt;File&lt;/span&gt;&lt;span style=&quot;color: rgb(68, 68, 68); font-family: &amp;quot;Lucida Console&amp;quot;, Courier, monospace; font-style: normal; font-variant-ligatures: normal; font-variant-caps: normal; font-weight: 400; letter-spacing: normal; orphans: 2; text-indent: 0px; text-transform: none; widows: 2; word-spacing: 0px; -webkit-text-stroke-width: 0px; white-space: pre; text-decoration-thickness: initial; text-decoration-style: initial; text-decoration-color: initial; float: none; display: inline !important;&quot;&gt;: [&lt;/span&gt;&lt;span style=&quot;box-sizing: border-box; font-family: &amp;quot;Lucida Console&amp;quot;, Courier, monospace; font-style: normal; font-variant-ligatures: normal; font-variant-caps: normal; font-weight: 400; letter-spacing: normal; orphans: 2; text-indent: 0px; text-transform: none; widows: 2; word-spacing: 0px; -webkit-text-stroke-width: 0px; white-space: pre; text-decoration-thickness: initial; text-decoration-style: initial; text-decoration-color: initial; color: rgb(136, 0, 0);&quot;&gt;&quot;New&quot;&lt;/span&gt;&lt;span style=&quot;color: rgb(68, 68, 68); font-family: &amp;quot;Lucida Console&amp;quot;, Courier, monospace; font-style: normal; font-variant-ligatures: normal; font-variant-caps: normal; font-weight: 400; letter-spacing: normal; orphans: 2; text-indent: 0px; text-transform: none; widows: 2; word-spacing: 0px; -webkit-text-stroke-width: 0px; white-space: pre; text-decoration-thickness: initial; text-decoration-style: initial; text-decoration-color: initial; float: none; display: inline !important;&quot;&gt;, &lt;/span&gt;&lt;span style=&quot;box-sizing: border-box; font-family: &amp;quot;Lucida Console&amp;quot;, Courier, monospace; font-style: normal; font-variant-ligatures: normal; font-variant-caps: normal; font-weight: 400; letter-spacing: normal; orphans: 2; text-indent: 0px; text-transform: none; widows: 2; word-spacing: 0px; -webkit-text-stroke-width: 0px; white-space: pre; text-decoration-thickness: initial; text-decoration-style: initial; text-decoration-color: initial; color: rgb(136, 0, 0);&quot;&gt;&quot;Open&quot;&lt;/span&gt;&lt;span style=&quot;color: rgb(68, 68, 68); font-family: &amp;quot;Lucida Console&amp;quot;, Courier, monospace; font-style: normal; font-variant-ligatures: normal; font-variant-caps: normal; font-weight: 400; letter-spacing: normal; orphans: 2; text-indent: 0px; text-transform: none; widows: 2; word-spacing: 0px; -webkit-text-stroke-width: 0px; white-space: pre; text-decoration-thickness: initial; text-decoration-style: initial; text-decoration-color: initial; float: none; display: inline !important;&quot;&gt;, { &lt;/span&gt;&lt;span style=&quot;box-sizing: border-box; font-family: &amp;quot;Lucida Console&amp;quot;, Courier, monospace; font-style: normal; font-variant-ligatures: normal; font-variant-caps: normal; letter-spacing: normal; orphans: 2; text-indent: 0px; text-transform: none; widows: 2; word-spacing: 0px; -webkit-text-stroke-width: 0px; white-space: pre; text-decoration-thickness: initial; text-decoration-style: initial; text-decoration-color: initial; color: rgb(136, 0, 0); font-weight: 700;&quot;&gt;Export&lt;/span&gt;&lt;span style=&quot;color: rgb(68, 68, 68); font-family: &amp;quot;Lucida Console&amp;quot;, Courier, monospace; font-style: normal; font-variant-ligatures: normal; font-variant-caps: normal; font-weight: 400; letter-spacing: normal; orphans: 2; text-indent: 0px; text-transform: none; widows: 2; word-spacing: 0px; -webkit-text-stroke-width: 0px; white-space: pre; text-decoration-thickness: initial; text-decoration-style: initial; text-decoration-color: initial; float: none; display: inline !important;&quot;&gt;: [&lt;/span&gt;&lt;span style=&quot;box-sizing: border-box; font-family: &amp;quot;Lucida Console&amp;quot;, Courier, monospace; font-style: normal; font-variant-ligatures: normal; font-variant-caps: normal; font-weight: 400; letter-spacing: normal; orphans: 2; text-indent: 0px; text-transform: none; widows: 2; word-spacing: 0px; -webkit-text-stroke-width: 0px; white-space: pre; text-decoration-thickness: initial; text-decoration-style: initial; text-decoration-color: initial; color: rgb(136, 0, 0);&quot;&gt;&quot;PDF&quot;&lt;/span&gt;&lt;span style=&quot;color: rgb(68, 68, 68); font-family: &amp;quot;Lucida Console&amp;quot;, Courier, monospace; font-style: normal; font-variant-ligatures: normal; font-variant-caps: normal; font-weight: 400; letter-spacing: normal; orphans: 2; text-indent: 0px; text-transform: none; widows: 2; word-spacing: 0px; -webkit-text-stroke-width: 0px; white-space: pre; text-decoration-thickness: initial; text-decoration-style: initial; text-decoration-color: initial; float: none; display: inline !important;&quot;&gt;, &lt;/span&gt;&lt;span style=&quot;box-sizing: border-box; font-family: &amp;quot;Lucida Console&amp;quot;, Courier, monospace; font-style: normal; font-variant-ligatures: normal; font-variant-caps: normal; font-weight: 400; letter-spacing: normal; orphans: 2; text-indent: 0px; text-transform: none; widows: 2; word-spacing: 0px; -webkit-text-stroke-width: 0px; white-space: pre; text-decoration-thickness: initial; text-decoration-style: initial; text-decoration-color: initial; color: rgb(136, 0, 0);&quot;&gt;&quot;HTML&quot;&lt;/span&gt;&lt;span style=&quot;color: rgb(68, 68, 68); font-family: &amp;quot;Lucida Console&amp;quot;, Courier, monospace; font-style: normal; font-variant-ligatures: normal; font-variant-caps: normal; font-weight: 400; letter-spacing: normal; orphans: 2; text-indent: 0px; text-transform: none; widows: 2; word-spacing: 0px; -webkit-text-stroke-width: 0px; white-space: pre; text-decoration-thickness: initial; text-decoration-style: initial; text-decoration-color: initial; float: none; display: inline !important;&quot;&gt;, &lt;/span&gt;&lt;span style=&quot;box-sizing: border-box; font-family: &amp;quot;Lucida Console&amp;quot;, Courier, monospace; font-style: normal; font-variant-ligatures: normal; font-variant-caps: normal; font-weight: 400; letter-spacing: normal; orphans: 2; text-indent: 0px; text-transform: none; widows: 2; word-spacing: 0px; -webkit-text-stroke-width: 0px; white-space: pre; text-decoration-thickness: initial; text-decoration-style: initial; text-decoration-color: initial; color: rgb(136, 0, 0);&quot;&gt;&quot;SVG&quot;&lt;/span&gt;&lt;span style=&quot;color: rgb(68, 68, 68); font-family: &amp;quot;Lucida Console&amp;quot;, Courier, monospace; font-style: normal; font-variant-ligatures: normal; font-variant-caps: normal; font-weight: 400; letter-spacing: normal; orphans: 2; text-indent: 0px; text-transform: none; widows: 2; word-spacing: 0px; -webkit-text-stroke-width: 0px; white-space: pre; text-decoration-thickness: initial; text-decoration-style: initial; text-decoration-color: initial; float: none; display: inline !important;&quot;&gt;] }],&lt;br&gt;    &lt;/span&gt;&lt;span style=&quot;box-sizing: border-box; font-family: &amp;quot;Lucida Console&amp;quot;, Courier, monospace; font-style: normal; font-variant-ligatures: normal; font-variant-caps: normal; letter-spacing: normal; orphans: 2; text-indent: 0px; text-transform: none; widows: 2; word-spacing: 0px; -webkit-text-stroke-width: 0px; white-space: pre; text-decoration-thickness: initial; text-decoration-style: initial; text-decoration-color: initial; color: rgb(136, 0, 0); font-weight: 700;&quot;&gt;Edit&lt;/span&gt;&lt;span style=&quot;color: rgb(68, 68, 68); font-family: &amp;quot;Lucida Console&amp;quot;, Courier, monospace; font-style: normal; font-variant-ligatures: normal; font-variant-caps: normal; font-weight: 400; letter-spacing: normal; orphans: 2; text-indent: 0px; text-transform: none; widows: 2; word-spacing: 0px; -webkit-text-stroke-width: 0px; white-space: pre; text-decoration-thickness: initial; text-decoration-style: initial; text-decoration-color: initial; float: none; display: inline !important;&quot;&gt;: [&lt;/span&gt;&lt;span style=&quot;box-sizing: border-box; font-family: &amp;quot;Lucida Console&amp;quot;, Courier, monospace; font-style: normal; font-variant-ligatures: normal; font-variant-caps: normal; font-weight: 400; letter-spacing: normal; orphans: 2; text-indent: 0px; text-transform: none; widows: 2; word-spacing: 0px; -webkit-text-stroke-width: 0px; white-space: pre; text-decoration-thickness: initial; text-decoration-style: initial; text-decoration-color: initial; color: rgb(136, 0, 0);&quot;&gt;&quot;Undo&quot;&lt;/span&gt;&lt;span style=&quot;color: rgb(68, 68, 68); font-family: &amp;quot;Lucida Console&amp;quot;, Courier, monospace; font-style: normal; font-variant-ligatures: normal; font-variant-caps: normal; font-weight: 400; letter-spacing: normal; orphans: 2; text-indent: 0px; text-transform: none; widows: 2; word-spacing: 0px; -webkit-text-stroke-width: 0px; white-space: pre; text-decoration-thickness: initial; text-decoration-style: initial; text-decoration-color: initial; float: none; display: inline !important;&quot;&gt;, &lt;/span&gt;&lt;span style=&quot;box-sizing: border-box; font-family: &amp;quot;Lucida Console&amp;quot;, Courier, monospace; font-style: normal; font-variant-ligatures: normal; font-variant-caps: normal; font-weight: 400; letter-spacing: normal; orphans: 2; text-indent: 0px; text-transform: none; widows: 2; word-spacing: 0px; -webkit-text-stroke-width: 0px; white-space: pre; text-decoration-thickness: initial; text-decoration-style: initial; text-decoration-color: initial; color: rgb(136, 0, 0);&quot;&gt;&quot;Redo&quot;&lt;/span&gt;&lt;span style=&quot;color: rgb(68, 68, 68); font-family: &amp;quot;Lucida Console&amp;quot;, Courier, monospace; font-style: normal; font-variant-ligatures: normal; font-variant-caps: normal; font-weight: 400; letter-spacing: normal; orphans: 2; text-indent: 0px; text-transform: none; widows: 2; word-spacing: 0px; -webkit-text-stroke-width: 0px; white-space: pre; text-decoration-thickness: initial; text-decoration-style: initial; text-decoration-color: initial; float: none; display: inline !important;&quot;&gt;],&lt;br&gt;  };&lt;br&gt;  &lt;/span&gt;&lt;span style=&quot;box-sizing: border-box; color: rgb(68, 68, 68); font-family: &amp;quot;Lucida Console&amp;quot;, Courier, monospace; font-style: normal; font-variant-ligatures: normal; font-variant-caps: normal; letter-spacing: normal; orphans: 2; text-indent: 0px; text-transform: none; widows: 2; word-spacing: 0px; -webkit-text-stroke-width: 0px; white-space: pre; text-decoration-thickness: initial; text-decoration-style: initial; text-decoration-color: initial; font-weight: 700;&quot;&gt;const&lt;/span&gt;&lt;span style=&quot;color: rgb(68, 68, 68); font-family: &amp;quot;Lucida Console&amp;quot;, Courier, monospace; font-style: normal; font-variant-ligatures: normal; font-variant-caps: normal; font-weight: 400; letter-spacing: normal; orphans: 2; text-indent: 0px; text-transform: none; widows: 2; word-spacing: 0px; -webkit-text-stroke-width: 0px; white-space: pre; text-decoration-thickness: initial; text-decoration-style: initial; text-decoration-color: initial; float: none; display: inline !important;&quot;&gt; &lt;/span&gt;&lt;span style=&quot;box-sizing: border-box; font-family: &amp;quot;Lucida Console&amp;quot;, Courier, monospace; font-style: normal; font-variant-ligatures: normal; font-variant-caps: normal; letter-spacing: normal; orphans: 2; text-indent: 0px; text-transform: none; widows: 2; word-spacing: 0px; -webkit-text-stroke-width: 0px; white-space: pre; text-decoration-thickness: initial; text-decoration-style: initial; text-decoration-color: initial; color: rgb(136, 0, 0); font-weight: 700;&quot;&gt;onClickCallback&lt;/span&gt;&lt;span style=&quot;color: rgb(68, 68, 68); font-family: &amp;quot;Lucida Console&amp;quot;, Courier, monospace; font-style: normal; font-variant-ligatures: normal; font-variant-caps: normal; font-weight: 400; letter-spacing: normal; orphans: 2; text-indent: 0px; text-transform: none; widows: 2; word-spacing: 0px; -webkit-text-stroke-width: 0px; white-space: pre; text-decoration-thickness: initial; text-decoration-style: initial; text-decoration-color: initial; float: none; display: inline !important;&quot;&gt; = (&lt;/span&gt;&lt;span style=&quot;box-sizing: border-box; color: rgb(68, 68, 68); font-family: &amp;quot;Lucida Console&amp;quot;, Courier, monospace; font-style: normal; font-variant-ligatures: normal; font-variant-caps: normal; font-weight: 400; letter-spacing: normal; orphans: 2; text-indent: 0px; text-transform: none; widows: 2; word-spacing: 0px; -webkit-text-stroke-width: 0px; white-space: pre; text-decoration-thickness: initial; text-decoration-style: initial; text-decoration-color: initial;&quot;&gt;item: &lt;span style=&quot;box-sizing: border-box; color: rgb(57, 115, 0); font-weight: 400;&quot;&gt;string&lt;/span&gt;&lt;/span&gt;&lt;span style=&quot;color: rgb(68, 68, 68); font-family: &amp;quot;Lucida Console&amp;quot;, Courier, monospace; font-style: normal; font-variant-ligatures: normal; font-variant-caps: normal; font-weight: 400; letter-spacing: normal; orphans: 2; text-indent: 0px; text-transform: none; widows: 2; word-spacing: 0px; -webkit-text-stroke-width: 0px; white-space: pre; text-decoration-thickness: initial; text-decoration-style: initial; text-decoration-color: initial; float: none; display: inline !important;&quot;&gt;) =&amp;gt; {&lt;br&gt;    &lt;/span&gt;&lt;span style=&quot;box-sizing: border-box; font-family: &amp;quot;Lucida Console&amp;quot;, Courier, monospace; font-style: normal; font-variant-ligatures: normal; font-variant-caps: normal; font-weight: 400; letter-spacing: normal; orphans: 2; text-indent: 0px; text-transform: none; widows: 2; word-spacing: 0px; -webkit-text-stroke-width: 0px; white-space: pre; text-decoration-thickness: initial; text-decoration-style: initial; text-decoration-color: initial; color: rgb(171, 86, 86);&quot;&gt;console&lt;/span&gt;&lt;span style=&quot;color: rgb(68, 68, 68); font-family: &amp;quot;Lucida Console&amp;quot;, Courier, monospace; font-style: normal; font-variant-ligatures: normal; font-variant-caps: normal; font-weight: 400; letter-spacing: normal; orphans: 2; text-indent: 0px; text-transform: none; widows: 2; word-spacing: 0px; -webkit-text-stroke-width: 0px; white-space: pre; text-decoration-thickness: initial; text-decoration-style: initial; text-decoration-color: initial; float: none; display: inline !important;&quot;&gt;.&lt;/span&gt;&lt;span style=&quot;box-sizing: border-box; font-family: &amp;quot;Lucida Console&amp;quot;, Courier, monospace; font-style: normal; font-variant-ligatures: normal; font-variant-caps: normal; letter-spacing: normal; orphans: 2; text-indent: 0px; text-transform: none; widows: 2; word-spacing: 0px; -webkit-text-stroke-width: 0px; white-space: pre; text-decoration-thickness: initial; text-decoration-style: initial; text-decoration-color: initial; color: rgb(136, 0, 0); font-weight: 700;&quot;&gt;log&lt;/span&gt;&lt;span style=&quot;color: rgb(68, 68, 68); font-family: &amp;quot;Lucida Console&amp;quot;, Courier, monospace; font-style: normal; font-variant-ligatures: normal; font-variant-caps: normal; font-weight: 400; letter-spacing: normal; orphans: 2; text-indent: 0px; text-transform: none; widows: 2; word-spacing: 0px; -webkit-text-stroke-width: 0px; white-space: pre; text-decoration-thickness: initial; text-decoration-style: initial; text-decoration-color: initial; float: none; display: inline !important;&quot;&gt;({ item });&lt;br&gt;  };&lt;br&gt;  &lt;/span&gt;&lt;span style=&quot;box-sizing: border-box; color: rgb(68, 68, 68); font-family: &amp;quot;Lucida Console&amp;quot;, Courier, monospace; font-style: normal; font-variant-ligatures: normal; font-variant-caps: normal; letter-spacing: normal; orphans: 2; text-indent: 0px; text-transform: none; widows: 2; word-spacing: 0px; -webkit-text-stroke-width: 0px; white-space: pre; text-decoration-thickness: initial; text-decoration-style: initial; text-decoration-color: initial; font-weight: 700;&quot;&gt;return&lt;/span&gt;&lt;span style=&quot;color: rgb(68, 68, 68); font-family: &amp;quot;Lucida Console&amp;quot;, Courier, monospace; font-style: normal; font-variant-ligatures: normal; font-variant-caps: normal; font-weight: 400; letter-spacing: normal; orphans: 2; text-indent: 0px; text-transform: none; widows: 2; word-spacing: 0px; -webkit-text-stroke-width: 0px; white-space: pre; text-decoration-thickness: initial; text-decoration-style: initial; text-decoration-color: initial; float: none; display: inline !important;&quot;&gt; (&lt;br&gt;      &lt;/span&gt;&lt;span style=&quot;box-sizing: border-box; color: rgb(68, 68, 68); font-family: &amp;quot;Lucida Console&amp;quot;, Courier, monospace; font-style: normal; font-variant-ligatures: normal; font-variant-caps: normal; font-weight: 400; letter-spacing: normal; orphans: 2; text-indent: 0px; text-transform: none; widows: 2; word-spacing: 0px; -webkit-text-stroke-width: 0px; white-space: pre; text-decoration-thickness: initial; text-decoration-style: initial; text-decoration-color: initial;&quot;&gt;&lt;span style=&quot;box-sizing: border-box; color: rgba(68, 68, 68, 0.667); font-weight: 400;&quot;&gt;&amp;lt;&lt;span style=&quot;box-sizing: border-box; color: rgba(68, 68, 68, 0.667); font-weight: 700;&quot;&gt;Dropdown&lt;/span&gt; &lt;span style=&quot;box-sizing: border-box; color: rgba(68, 68, 68, 0.667); font-weight: 400;&quot;&gt;items&lt;/span&gt;=&lt;span style=&quot;box-sizing: border-box; color: rgb(136, 0, 0); font-weight: 400;&quot;&gt;{items}&lt;/span&gt; &lt;span style=&quot;box-sizing: border-box; color: rgba(68, 68, 68, 0.667); font-weight: 400;&quot;&gt;onClick&lt;/span&gt;=&lt;span style=&quot;box-sizing: border-box; color: rgb(136, 0, 0); font-weight: 400;&quot;&gt;{onClickCallback}&lt;/span&gt; /&amp;gt;&lt;/span&gt;&lt;/span&gt;&lt;span style=&quot;color: rgb(68, 68, 68); font-family: &amp;quot;Lucida Console&amp;quot;, Courier, monospace; font-style: normal; font-variant-ligatures: normal; font-variant-caps: normal; font-weight: 400; letter-spacing: normal; orphans: 2; text-indent: 0px; text-transform: none; widows: 2; word-spacing: 0px; -webkit-text-stroke-width: 0px; white-space: pre; text-decoration-thickness: initial; text-decoration-style: initial; text-decoration-color: initial; float: none; display: inline !important;&quot;&gt;&lt;br&gt;  )&lt;/span&gt;&lt;/font&gt;" style="rounded=0;whiteSpace=wrap;html=1;align=left;shadow=1;" vertex="1" parent="1">
          <mxGeometry x="30" y="280" width="420" height="200" as="geometry" />
        </mxCell>
        <mxCell id="NcWsjzNoAgIH2NNssZIe-7" value="B. Declarative (onClick omitted):" style="text;html=1;align=center;verticalAlign=middle;resizable=0;points=[];autosize=1;strokeColor=none;fillColor=none;" vertex="1" parent="1">
          <mxGeometry x="495" y="238" width="190" height="30" as="geometry" />
        </mxCell>
        <mxCell id="NcWsjzNoAgIH2NNssZIe-8" value="&lt;font style=&quot;font-size: 11px; background-color: light-dark(#ffffff, var(--ge-dark-color, #121212));&quot;&gt;&lt;span style=&quot;color: rgb(68, 68, 68); font-family: &amp;quot;Lucida Console&amp;quot;, Courier, monospace; font-style: normal; font-variant-ligatures: normal; font-variant-caps: normal; font-weight: 400; letter-spacing: normal; orphans: 2; text-indent: 0px; text-transform: none; widows: 2; word-spacing: 0px; -webkit-text-stroke-width: 0px; white-space: pre; text-decoration-thickness: initial; text-decoration-style: initial; text-decoration-color: initial; float: none; display: inline !important;&quot;&gt; &amp;lt;&lt;/span&gt;&lt;span style=&quot;box-sizing: border-box; font-family: &amp;quot;Lucida Console&amp;quot;, Courier, monospace; font-style: normal; font-variant-ligatures: normal; font-variant-caps: normal; letter-spacing: normal; orphans: 2; text-indent: 0px; text-transform: none; widows: 2; word-spacing: 0px; -webkit-text-stroke-width: 0px; white-space: pre; text-decoration-thickness: initial; text-decoration-style: initial; text-decoration-color: initial; color: rgb(136, 0, 0); font-weight: 700;&quot;&gt;DropdownMenu&lt;/span&gt;&lt;span style=&quot;color: rgb(68, 68, 68); font-family: &amp;quot;Lucida Console&amp;quot;, Courier, monospace; font-style: normal; font-variant-ligatures: normal; font-variant-caps: normal; font-weight: 400; letter-spacing: normal; orphans: 2; text-indent: 0px; text-transform: none; widows: 2; word-spacing: 0px; -webkit-text-stroke-width: 0px; white-space: pre; text-decoration-thickness: initial; text-decoration-style: initial; text-decoration-color: initial; float: none; display: inline !important;&quot;&gt;&amp;gt;&lt;br&gt;  &lt;/span&gt;&lt;span style=&quot;box-sizing: border-box; color: rgb(68, 68, 68); font-family: &amp;quot;Lucida Console&amp;quot;, Courier, monospace; font-style: normal; font-variant-ligatures: normal; font-variant-caps: normal; font-weight: 400; letter-spacing: normal; orphans: 2; text-indent: 0px; text-transform: none; widows: 2; word-spacing: 0px; -webkit-text-stroke-width: 0px; white-space: pre; text-decoration-thickness: initial; text-decoration-style: initial; text-decoration-color: initial;&quot;&gt;&lt;span style=&quot;box-sizing: border-box; color: rgba(68, 68, 68, 0.667); font-weight: 400;&quot;&gt;&amp;lt;&lt;span style=&quot;box-sizing: border-box; color: rgba(68, 68, 68, 0.667); font-weight: 700;&quot;&gt;DropdownMenu.Button&lt;/span&gt;&amp;gt;&lt;/span&gt;File&lt;span style=&quot;box-sizing: border-box; color: rgba(68, 68, 68, 0.667); font-weight: 400;&quot;&gt;&amp;lt;/&lt;span style=&quot;box-sizing: border-box; color: rgba(68, 68, 68, 0.667); font-weight: 700;&quot;&gt;DropdownMenu.Button&lt;/span&gt;&amp;gt;&lt;/span&gt;&lt;/span&gt;&lt;span style=&quot;color: rgb(68, 68, 68); font-family: &amp;quot;Lucida Console&amp;quot;, Courier, monospace; font-style: normal; font-variant-ligatures: normal; font-variant-caps: normal; font-weight: 400; letter-spacing: normal; orphans: 2; text-indent: 0px; text-transform: none; widows: 2; word-spacing: 0px; -webkit-text-stroke-width: 0px; white-space: pre; text-decoration-thickness: initial; text-decoration-style: initial; text-decoration-color: initial; float: none; display: inline !important;&quot;&gt;&lt;br&gt;  &lt;/span&gt;&lt;span style=&quot;box-sizing: border-box; color: rgb(68, 68, 68); font-family: &amp;quot;Lucida Console&amp;quot;, Courier, monospace; font-style: normal; font-variant-ligatures: normal; font-variant-caps: normal; font-weight: 400; letter-spacing: normal; orphans: 2; text-indent: 0px; text-transform: none; widows: 2; word-spacing: 0px; -webkit-text-stroke-width: 0px; white-space: pre; text-decoration-thickness: initial; text-decoration-style: initial; text-decoration-color: initial;&quot;&gt;&lt;span style=&quot;box-sizing: border-box; color: rgba(68, 68, 68, 0.667); font-weight: 400;&quot;&gt;&amp;lt;&lt;span style=&quot;box-sizing: border-box; color: rgba(68, 68, 68, 0.667); font-weight: 700;&quot;&gt;DropdownMenu.List&lt;/span&gt;&amp;gt;&lt;/span&gt;&lt;br&gt;    &lt;span style=&quot;box-sizing: border-box; color: rgba(68, 68, 68, 0.667); font-weight: 400;&quot;&gt;&amp;lt;&lt;span style=&quot;box-sizing: border-box; color: rgba(68, 68, 68, 0.667); font-weight: 700;&quot;&gt;DropdownMenu.Item&lt;/span&gt;&amp;gt;&lt;/span&gt;New&lt;span style=&quot;box-sizing: border-box; color: rgba(68, 68, 68, 0.667); font-weight: 400;&quot;&gt;&amp;lt;/&lt;span style=&quot;box-sizing: border-box; color: rgba(68, 68, 68, 0.667); font-weight: 700;&quot;&gt;DropdownMenu.Item&lt;/span&gt;&amp;gt;&lt;/span&gt;&lt;br&gt;    &lt;span style=&quot;box-sizing: border-box; color: rgba(68, 68, 68, 0.667); font-weight: 400;&quot;&gt;&amp;lt;&lt;span style=&quot;box-sizing: border-box; color: rgba(68, 68, 68, 0.667); font-weight: 700;&quot;&gt;DropdownMenu.Item&lt;/span&gt;&amp;gt;&lt;/span&gt;Open&lt;span style=&quot;box-sizing: border-box; color: rgba(68, 68, 68, 0.667); font-weight: 400;&quot;&gt;&amp;lt;/&lt;span style=&quot;box-sizing: border-box; color: rgba(68, 68, 68, 0.667); font-weight: 700;&quot;&gt;DropdownMenu.Item&lt;/span&gt;&amp;gt;&lt;/span&gt;&lt;br&gt;    &lt;span style=&quot;box-sizing: border-box; color: rgba(68, 68, 68, 0.667); font-weight: 400;&quot;&gt;&amp;lt;&lt;span style=&quot;box-sizing: border-box; color: rgba(68, 68, 68, 0.667); font-weight: 700;&quot;&gt;DropdownMenu.Item&lt;/span&gt;&amp;gt;&lt;/span&gt;Export&lt;span style=&quot;box-sizing: border-box; color: rgba(68, 68, 68, 0.667); font-weight: 400;&quot;&gt;&amp;lt;/&lt;span style=&quot;box-sizing: border-box; color: rgba(68, 68, 68, 0.667); font-weight: 700;&quot;&gt;DropdownMenu.Item&lt;/span&gt;&amp;gt;&lt;/span&gt;&lt;/span&gt;&lt;/font&gt;&lt;div&gt;&lt;font style=&quot;font-size: 11px;&quot;&gt;&lt;span style=&quot;box-sizing: border-box; font-style: normal; font-variant-ligatures: normal; font-variant-caps: normal; font-weight: 400; letter-spacing: normal; orphans: 2; text-indent: 0px; text-transform: none; widows: 2; word-spacing: 0px; -webkit-text-stroke-width: 0px; white-space: pre; text-decoration-thickness: initial; text-decoration-style: initial; text-decoration-color: initial; color: rgb(68, 68, 68); font-family: &amp;quot;Lucida Console&amp;quot;, Courier, monospace;&quot;&gt;&lt;span style=&quot;background-color: light-dark(#ffffff, var(--ge-dark-color, #121212)); color: rgb(68, 68, 68); float: none; display: inline !important;&quot;&gt;      &lt;/span&gt;&lt;span style=&quot;box-sizing: border-box; color: rgb(68, 68, 68);&quot;&gt;&lt;span style=&quot;background-color: light-dark(#ffffff, var(--ge-dark-color, #121212)); color: rgba(68, 68, 68, 0.667); box-sizing: border-box;&quot;&gt;&amp;lt;&lt;span style=&quot;box-sizing: border-box; color: rgba(68, 68, 68, 0.667); font-weight: 700;&quot;&gt;DropdownMenu.List&lt;/span&gt;&amp;gt;&lt;/span&gt;&lt;font style=&quot;background-color: light-dark(#ffffff, var(--ge-dark-color, #121212));&quot; color=&quot;rgba(0, 0, 0, 0)&quot;&gt;&lt;br&gt;        &lt;/font&gt;&lt;span style=&quot;background-color: light-dark(#ffffff, var(--ge-dark-color, #121212)); color: rgba(68, 68, 68, 0.667); box-sizing: border-box;&quot;&gt;&amp;lt;&lt;span style=&quot;box-sizing: border-box; color: rgba(68, 68, 68, 0.667); font-weight: 700;&quot;&gt;DropdownMenu.Item&lt;/span&gt;&amp;gt;&lt;/span&gt;&lt;span style=&quot;box-sizing: border-box; color: rgba(68, 68, 68, 0.667);&quot;&gt;&lt;font color=&quot;rgba(0, 0, 0, 0)&quot;&gt;PDF&lt;/font&gt;&lt;/span&gt;&lt;span style=&quot;background-color: light-dark(#ffffff, var(--ge-dark-color, #121212)); color: rgba(68, 68, 68, 0.667); box-sizing: border-box;&quot;&gt;&amp;lt;/&lt;span style=&quot;box-sizing: border-box; color: rgba(68, 68, 68, 0.667); font-weight: 700;&quot;&gt;DropdownMenu.Item&lt;/span&gt;&amp;gt;&lt;/span&gt;&lt;font style=&quot;background-color: light-dark(#ffffff, var(--ge-dark-color, #121212));&quot; color=&quot;rgba(0, 0, 0, 0)&quot;&gt;&lt;br&gt;        &lt;/font&gt;&lt;span style=&quot;background-color: light-dark(#ffffff, var(--ge-dark-color, #121212)); color: rgba(68, 68, 68, 0.667); box-sizing: border-box;&quot;&gt;&amp;lt;&lt;span style=&quot;box-sizing: border-box; color: rgba(68, 68, 68, 0.667); font-weight: 700;&quot;&gt;DropdownMenu.Item&lt;/span&gt;&amp;gt;&lt;/span&gt;&lt;span style=&quot;background-color: light-dark(#ffffff, var(--ge-dark-color, #121212)); color: rgba(68, 68, 68, 0.667); box-sizing: border-box;&quot;&gt;&lt;font color=&quot;#444444&quot;&gt;HTML&lt;/font&gt;&lt;/span&gt;&lt;span style=&quot;background-color: light-dark(#ffffff, var(--ge-dark-color, #121212)); color: rgba(68, 68, 68, 0.667); box-sizing: border-box;&quot;&gt;&amp;lt;/&lt;span style=&quot;box-sizing: border-box; color: rgba(68, 68, 68, 0.667); font-weight: 700;&quot;&gt;DropdownMenu.Item&lt;/span&gt;&amp;gt;&lt;/span&gt;&lt;font style=&quot;background-color: light-dark(#ffffff, var(--ge-dark-color, #121212));&quot; color=&quot;rgba(0, 0, 0, 0)&quot;&gt;&lt;br&gt;        &lt;/font&gt;&lt;span style=&quot;background-color: light-dark(#ffffff, var(--ge-dark-color, #121212)); color: rgba(68, 68, 68, 0.667); box-sizing: border-box;&quot;&gt;&amp;lt;&lt;span style=&quot;box-sizing: border-box; color: rgba(68, 68, 68, 0.667); font-weight: 700;&quot;&gt;DropdownMenu.Item&lt;/span&gt;&amp;gt;&lt;/span&gt;&lt;span style=&quot;background-color: light-dark(#ffffff, var(--ge-dark-color, #121212)); box-sizing: border-box; color: rgba(68, 68, 68, 0.667);&quot;&gt;&lt;font color=&quot;rgba(0, 0, 0, 0)&quot;&gt;SVG&lt;/font&gt;&lt;/span&gt;&lt;span style=&quot;background-color: light-dark(#ffffff, var(--ge-dark-color, #121212)); color: rgba(68, 68, 68, 0.667); box-sizing: border-box;&quot;&gt;&amp;lt;/&lt;span style=&quot;box-sizing: border-box; color: rgba(68, 68, 68, 0.667); font-weight: 700;&quot;&gt;DropdownMenu.Item&lt;/span&gt;&amp;gt;&lt;/span&gt;&lt;font style=&quot;background-color: light-dark(#ffffff, var(--ge-dark-color, #121212));&quot; color=&quot;rgba(0, 0, 0, 0)&quot;&gt;&lt;br&gt;      &lt;/font&gt;&lt;span style=&quot;background-color: light-dark(#ffffff, var(--ge-dark-color, #121212)); color: rgba(68, 68, 68, 0.667); box-sizing: border-box;&quot;&gt;&amp;lt;/&lt;span style=&quot;box-sizing: border-box; color: rgba(68, 68, 68, 0.667); font-weight: 700;&quot;&gt;DropdownMenu.List&lt;/span&gt;&amp;gt;&lt;/span&gt;&lt;/span&gt;&lt;span style=&quot;background-color: light-dark(#ffffff, var(--ge-dark-color, #121212)); color: rgb(68, 68, 68); float: none; display: inline !important;&quot;&gt;&lt;br&gt;&lt;/span&gt;&lt;font style=&quot;background-color: light-dark(#ffffff, var(--ge-dark-color, #121212));&quot; color=&quot;rgba(0, 0, 0, 0)&quot;&gt;  &lt;/font&gt;&lt;span style=&quot;background-color: light-dark(#ffffff, var(--ge-dark-color, #121212)); color: rgba(68, 68, 68, 0.667); box-sizing: border-box; font-weight: 400;&quot;&gt;&amp;lt;/&lt;span style=&quot;box-sizing: border-box; color: rgba(68, 68, 68, 0.667); font-weight: 700;&quot;&gt;DropdownMenu.List&lt;/span&gt;&amp;gt;&lt;/span&gt;&lt;/span&gt;&lt;span style=&quot;background-color: light-dark(#ffffff, var(--ge-dark-color, #121212)); color: rgb(68, 68, 68); font-family: &amp;quot;Lucida Console&amp;quot;, Courier, monospace; font-style: normal; font-variant-ligatures: normal; font-variant-caps: normal; font-weight: 400; letter-spacing: normal; orphans: 2; text-indent: 0px; text-transform: none; widows: 2; word-spacing: 0px; -webkit-text-stroke-width: 0px; white-space: pre; text-decoration-thickness: initial; text-decoration-style: initial; text-decoration-color: initial; float: none; display: inline !important;&quot;&gt;&lt;br&gt; &amp;lt;/&lt;/span&gt;&lt;span style=&quot;background-color: light-dark(#ffffff, var(--ge-dark-color, #121212)); box-sizing: border-box; font-family: &amp;quot;Lucida Console&amp;quot;, Courier, monospace; font-style: normal; font-variant-ligatures: normal; font-variant-caps: normal; letter-spacing: normal; orphans: 2; text-indent: 0px; text-transform: none; widows: 2; word-spacing: 0px; -webkit-text-stroke-width: 0px; white-space: pre; text-decoration-thickness: initial; text-decoration-style: initial; text-decoration-color: initial; color: rgb(136, 0, 0); font-weight: 700;&quot;&gt;DropdownMenu&lt;/span&gt;&lt;span style=&quot;background-color: light-dark(#ffffff, var(--ge-dark-color, #121212)); color: rgb(68, 68, 68); font-family: &amp;quot;Lucida Console&amp;quot;, Courier, monospace; font-style: normal; font-variant-ligatures: normal; font-variant-caps: normal; font-weight: 400; letter-spacing: normal; orphans: 2; text-indent: 0px; text-transform: none; widows: 2; word-spacing: 0px; -webkit-text-stroke-width: 0px; white-space: pre; text-decoration-thickness: initial; text-decoration-style: initial; text-decoration-color: initial; float: none; display: inline !important;&quot;&gt;&amp;gt;&lt;/span&gt;&lt;/font&gt;&lt;/div&gt;" style="rounded=0;whiteSpace=wrap;html=1;align=left;shadow=1;" vertex="1" parent="1">
          <mxGeometry x="460" y="280" width="370" height="200" as="geometry" />
        </mxCell>
        <mxCell id="NcWsjzNoAgIH2NNssZIe-9" value="&lt;span style=&quot;background-color: light-dark(#ffffff, var(--ge-dark-color, #121212));&quot;&gt;&lt;font style=&quot;font-size: 11px;&quot;&gt;&lt;span style=&quot;color: rgb(68, 68, 68); font-family: &amp;quot;Lucida Console&amp;quot;, Courier, monospace; white-space: pre;&quot;&gt;    &amp;lt;div className=&lt;/span&gt;&lt;span style=&quot;box-sizing: border-box; font-family: &amp;quot;Lucida Console&amp;quot;, Courier, monospace; white-space: pre; color: rgb(136, 0, 0);&quot;&gt;&quot;dropdown-wrapper&quot;&lt;/span&gt;&lt;span style=&quot;color: rgb(68, 68, 68); font-family: &amp;quot;Lucida Console&amp;quot;, Courier, monospace; white-space: pre;&quot;&gt; ref={dRef}&amp;gt;&lt;br&gt;      {&lt;/span&gt;&lt;span style=&quot;box-sizing: border-box; font-family: &amp;quot;Lucida Console&amp;quot;, Courier, monospace; white-space: pre; color: rgb(136, 0, 0); font-weight: 700;&quot;&gt;Object&lt;/span&gt;&lt;span style=&quot;color: rgb(68, 68, 68); font-family: &amp;quot;Lucida Console&amp;quot;, Courier, monospace; white-space: pre;&quot;&gt;.&lt;/span&gt;&lt;span style=&quot;box-sizing: border-box; font-family: &amp;quot;Lucida Console&amp;quot;, Courier, monospace; white-space: pre; color: rgb(136, 0, 0); font-weight: 700;&quot;&gt;keys&lt;/span&gt;&lt;span style=&quot;color: rgb(68, 68, 68); font-family: &amp;quot;Lucida Console&amp;quot;, Courier, monospace; white-space: pre;&quot;&gt;(items).&lt;/span&gt;&lt;span style=&quot;box-sizing: border-box; font-family: &amp;quot;Lucida Console&amp;quot;, Courier, monospace; white-space: pre; color: rgb(136, 0, 0); font-weight: 700;&quot;&gt;map&lt;/span&gt;&lt;span style=&quot;color: rgb(68, 68, 68); font-family: &amp;quot;Lucida Console&amp;quot;, Courier, monospace; white-space: pre;&quot;&gt;(&lt;/span&gt;&lt;span style=&quot;box-sizing: border-box; color: rgb(68, 68, 68); font-family: &amp;quot;Lucida Console&amp;quot;, Courier, monospace; white-space: pre;&quot;&gt;(&lt;span style=&quot;box-sizing: border-box;&quot;&gt;item&lt;/span&gt;) =&amp;gt;&lt;/span&gt;&lt;span style=&quot;color: rgb(68, 68, 68); font-family: &amp;quot;Lucida Console&amp;quot;, Courier, monospace; white-space: pre;&quot;&gt; (&lt;br&gt;        &lt;/span&gt;&lt;span style=&quot;box-sizing: border-box; color: rgb(68, 68, 68); font-family: &amp;quot;Lucida Console&amp;quot;, Courier, monospace; white-space: pre;&quot;&gt;&lt;span style=&quot;box-sizing: border-box; color: rgba(68, 68, 68, 0.667);&quot;&gt;&amp;lt;&lt;span style=&quot;box-sizing: border-box; font-weight: 700;&quot;&gt;div&lt;/span&gt; &lt;span style=&quot;box-sizing: border-box;&quot;&gt;className&lt;/span&gt;=&lt;span style=&quot;box-sizing: border-box; color: rgb(136, 0, 0);&quot;&gt;&quot;dropdown-list&quot;&lt;/span&gt; &lt;span style=&quot;box-sizing: border-box;&quot;&gt;key&lt;/span&gt;=&lt;span style=&quot;box-sizing: border-box; color: rgb(136, 0, 0);&quot;&gt;{item}&lt;/span&gt;&amp;gt;&lt;/span&gt;&lt;br&gt;          &lt;span style=&quot;box-sizing: border-box; color: rgba(68, 68, 68, 0.667);&quot;&gt;&amp;lt;&lt;span style=&quot;box-sizing: border-box; font-weight: 700;&quot;&gt;button&lt;/span&gt;&lt;br&gt;            &lt;span style=&quot;box-sizing: border-box;&quot;&gt;className&lt;/span&gt;=&lt;span style=&quot;box-sizing: border-box; color: rgb(136, 0, 0);&quot;&gt;{buttonClassName}&lt;/span&gt;&lt;br&gt;            &lt;span style=&quot;box-sizing: border-box;&quot;&gt;onClick&lt;/span&gt;=&lt;span style=&quot;box-sizing: border-box; color: rgb(136, 0, 0);&quot;&gt;{()&lt;/span&gt; =&amp;gt;&lt;/span&gt; setOpenItem(item)}&lt;br&gt;            key={item}&lt;br&gt;          &amp;gt;&lt;br&gt;            {item}&lt;br&gt;          &lt;span style=&quot;box-sizing: border-box; color: rgba(68, 68, 68, 0.667);&quot;&gt;&amp;lt;/&lt;span style=&quot;box-sizing: border-box; font-weight: 700;&quot;&gt;button&lt;/span&gt;&amp;gt;&lt;/span&gt;&lt;br&gt;          {openItem === item &amp;amp;&amp;amp; traverse(items, item)}&lt;br&gt;        &lt;span style=&quot;box-sizing: border-box; color: rgba(68, 68, 68, 0.667);&quot;&gt;&amp;lt;/&lt;span style=&quot;box-sizing: border-box; font-weight: 700;&quot;&gt;div&lt;/span&gt;&amp;gt;&lt;/span&gt;&lt;/span&gt;&lt;span style=&quot;color: rgb(68, 68, 68); font-family: &amp;quot;Lucida Console&amp;quot;, Courier, monospace; white-space: pre;&quot;&gt;&lt;br&gt;      ))}&lt;br&gt;    &amp;lt;/div&amp;gt;&lt;/span&gt;&lt;/font&gt;&lt;/span&gt;" style="rounded=0;whiteSpace=wrap;html=1;align=left;shadow=1;" vertex="1" parent="1">
          <mxGeometry x="30" y="630" width="380" height="290" as="geometry" />
        </mxCell>
        <mxCell id="NcWsjzNoAgIH2NNssZIe-10" value="items | onClick | classNames ..." style="text;html=1;align=center;verticalAlign=middle;resizable=0;points=[];autosize=1;strokeColor=none;fillColor=none;" vertex="1" parent="1">
          <mxGeometry x="45" y="508" width="190" height="30" as="geometry" />
        </mxCell>
        <mxCell id="NcWsjzNoAgIH2NNssZIe-11" value="&lt;h2&gt;Deep Dives&lt;/h2&gt;" style="text;html=1;align=center;verticalAlign=middle;resizable=0;points=[];autosize=1;strokeColor=none;fillColor=none;" vertex="1" parent="1">
          <mxGeometry x="350" y="543" width="120" height="60" as="geometry" />
        </mxCell>
        <mxCell id="NcWsjzNoAgIH2NNssZIe-12" value="&lt;h3&gt;Visibility&lt;/h3&gt;" style="text;html=1;align=center;verticalAlign=middle;resizable=0;points=[];autosize=1;strokeColor=none;fillColor=none;" vertex="1" parent="1">
          <mxGeometry x="40" y="580" width="80" height="60" as="geometry" />
        </mxCell>
        <mxCell id="NcWsjzNoAgIH2NNssZIe-15" value="&lt;font style=&quot;font-size: 11px;&quot;&gt;&lt;span style=&quot;color: rgb(68, 68, 68); font-family: &amp;quot;Lucida Console&amp;quot;, Courier, monospace; font-style: normal; font-variant-ligatures: normal; font-variant-caps: normal; font-weight: 400; letter-spacing: normal; orphans: 2; text-indent: 0px; text-transform: none; widows: 2; word-spacing: 0px; -webkit-text-stroke-width: 0px; white-space: pre; text-decoration-thickness: initial; text-decoration-style: initial; text-decoration-color: initial; float: none; display: inline !important;&quot;&gt;  &lt;/span&gt;&lt;span style=&quot;box-sizing: border-box; color: rgb(68, 68, 68); font-family: &amp;quot;Lucida Console&amp;quot;, Courier, monospace; font-style: normal; font-variant-ligatures: normal; font-variant-caps: normal; letter-spacing: normal; orphans: 2; text-indent: 0px; text-transform: none; widows: 2; word-spacing: 0px; -webkit-text-stroke-width: 0px; white-space: pre; text-decoration-thickness: initial; text-decoration-style: initial; text-decoration-color: initial; font-weight: 700;&quot;&gt;function&lt;/span&gt;&lt;span style=&quot;color: rgb(68, 68, 68); font-family: &amp;quot;Lucida Console&amp;quot;, Courier, monospace; font-style: normal; font-variant-ligatures: normal; font-variant-caps: normal; font-weight: 400; letter-spacing: normal; orphans: 2; text-indent: 0px; text-transform: none; widows: 2; word-spacing: 0px; -webkit-text-stroke-width: 0px; white-space: pre; text-decoration-thickness: initial; text-decoration-style: initial; text-decoration-color: initial; float: none; display: inline !important;&quot;&gt; &lt;/span&gt;&lt;span style=&quot;box-sizing: border-box; font-family: &amp;quot;Lucida Console&amp;quot;, Courier, monospace; font-style: normal; font-variant-ligatures: normal; font-variant-caps: normal; letter-spacing: normal; orphans: 2; text-indent: 0px; text-transform: none; widows: 2; word-spacing: 0px; -webkit-text-stroke-width: 0px; white-space: pre; text-decoration-thickness: initial; text-decoration-style: initial; text-decoration-color: initial; color: rgb(136, 0, 0); font-weight: 700;&quot;&gt;traverse&lt;/span&gt;&lt;span style=&quot;color: rgb(68, 68, 68); font-family: &amp;quot;Lucida Console&amp;quot;, Courier, monospace; font-style: normal; font-variant-ligatures: normal; font-variant-caps: normal; font-weight: 400; letter-spacing: normal; orphans: 2; text-indent: 0px; text-transform: none; widows: 2; word-spacing: 0px; -webkit-text-stroke-width: 0px; white-space: pre; text-decoration-thickness: initial; text-decoration-style: initial; text-decoration-color: initial; float: none; display: inline !important;&quot;&gt;(&lt;/span&gt;&lt;span style=&quot;box-sizing: border-box; color: rgb(68, 68, 68); font-family: &amp;quot;Lucida Console&amp;quot;, Courier, monospace; font-style: normal; font-variant-ligatures: normal; font-variant-caps: normal; font-weight: 400; letter-spacing: normal; orphans: 2; text-indent: 0px; text-transform: none; widows: 2; word-spacing: 0px; -webkit-text-stroke-width: 0px; white-space: pre; text-decoration-thickness: initial; text-decoration-style: initial; text-decoration-color: initial;&quot;&gt;items: &lt;span style=&quot;box-sizing: border-box; color: rgb(57, 115, 0); font-weight: 400;&quot;&gt;any&lt;/span&gt;, item: &lt;span style=&quot;box-sizing: border-box; color: rgb(57, 115, 0); font-weight: 400;&quot;&gt;string&lt;/span&gt;&lt;/span&gt;&lt;span style=&quot;color: rgb(68, 68, 68); font-family: &amp;quot;Lucida Console&amp;quot;, Courier, monospace; font-style: normal; font-variant-ligatures: normal; font-variant-caps: normal; font-weight: 400; letter-spacing: normal; orphans: 2; text-indent: 0px; text-transform: none; widows: 2; word-spacing: 0px; -webkit-text-stroke-width: 0px; white-space: pre; text-decoration-thickness: initial; text-decoration-style: initial; text-decoration-color: initial; float: none; display: inline !important;&quot;&gt;): &lt;/span&gt;&lt;span style=&quot;box-sizing: border-box; font-family: &amp;quot;Lucida Console&amp;quot;, Courier, monospace; font-style: normal; font-variant-ligatures: normal; font-variant-caps: normal; letter-spacing: normal; orphans: 2; text-indent: 0px; text-transform: none; widows: 2; word-spacing: 0px; -webkit-text-stroke-width: 0px; white-space: pre; text-decoration-thickness: initial; text-decoration-style: initial; text-decoration-color: initial; color: rgb(136, 0, 0); font-weight: 700;&quot;&gt;ReactNode&lt;/span&gt;&lt;span style=&quot;color: rgb(68, 68, 68); font-family: &amp;quot;Lucida Console&amp;quot;, Courier, monospace; font-style: normal; font-variant-ligatures: normal; font-variant-caps: normal; font-weight: 400; letter-spacing: normal; orphans: 2; text-indent: 0px; text-transform: none; widows: 2; word-spacing: 0px; -webkit-text-stroke-width: 0px; white-space: pre; text-decoration-thickness: initial; text-decoration-style: initial; text-decoration-color: initial; float: none; display: inline !important;&quot;&gt; {&lt;br&gt;    &lt;/span&gt;&lt;span style=&quot;box-sizing: border-box; color: rgb(68, 68, 68); font-family: &amp;quot;Lucida Console&amp;quot;, Courier, monospace; font-style: normal; font-variant-ligatures: normal; font-variant-caps: normal; letter-spacing: normal; orphans: 2; text-indent: 0px; text-transform: none; widows: 2; word-spacing: 0px; -webkit-text-stroke-width: 0px; white-space: pre; text-decoration-thickness: initial; text-decoration-style: initial; text-decoration-color: initial; font-weight: 700;&quot;&gt;return&lt;/span&gt;&lt;span style=&quot;color: rgb(68, 68, 68); font-family: &amp;quot;Lucida Console&amp;quot;, Courier, monospace; font-style: normal; font-variant-ligatures: normal; font-variant-caps: normal; font-weight: 400; letter-spacing: normal; orphans: 2; text-indent: 0px; text-transform: none; widows: 2; word-spacing: 0px; -webkit-text-stroke-width: 0px; white-space: pre; text-decoration-thickness: initial; text-decoration-style: initial; text-decoration-color: initial; float: none; display: inline !important;&quot;&gt; (&lt;br&gt;      &lt;/span&gt;&lt;span style=&quot;box-sizing: border-box; color: rgb(68, 68, 68); font-family: &amp;quot;Lucida Console&amp;quot;, Courier, monospace; font-style: normal; font-variant-ligatures: normal; font-variant-caps: normal; font-weight: 400; letter-spacing: normal; orphans: 2; text-indent: 0px; text-transform: none; widows: 2; word-spacing: 0px; -webkit-text-stroke-width: 0px; white-space: pre; text-decoration-thickness: initial; text-decoration-style: initial; text-decoration-color: initial;&quot;&gt;&lt;span style=&quot;box-sizing: border-box; color: rgba(68, 68, 68, 0.667); font-weight: 400;&quot;&gt;&amp;lt;&lt;span style=&quot;box-sizing: border-box; color: rgba(68, 68, 68, 0.667); font-weight: 700;&quot;&gt;div&lt;/span&gt; &lt;span style=&quot;box-sizing: border-box; color: rgba(68, 68, 68, 0.667); font-weight: 400;&quot;&gt;className&lt;/span&gt;=&lt;span style=&quot;box-sizing: border-box; color: rgb(136, 0, 0); font-weight: 400;&quot;&gt;&quot;menuitem-wrapper&quot;&lt;/span&gt;&amp;gt;&lt;/span&gt;&lt;br&gt;        {items[item].map((i) =&amp;gt; {&lt;br&gt;          if (typeof i === &quot;string&quot;) {&lt;br&gt;            return (&lt;br&gt;              &lt;span style=&quot;box-sizing: border-box; color: rgba(68, 68, 68, 0.667); font-weight: 400;&quot;&gt;&amp;lt;&lt;span style=&quot;box-sizing: border-box; color: rgba(68, 68, 68, 0.667); font-weight: 700;&quot;&gt;button&lt;/span&gt;&lt;br&gt;                &lt;span style=&quot;box-sizing: border-box; color: rgba(68, 68, 68, 0.667); font-weight: 400;&quot;&gt;key&lt;/span&gt;=&lt;span style=&quot;box-sizing: border-box; color: rgb(136, 0, 0); font-weight: 400;&quot;&gt;{i}&lt;/span&gt;&lt;br&gt;                &lt;span style=&quot;box-sizing: border-box; color: rgba(68, 68, 68, 0.667); font-weight: 400;&quot;&gt;className&lt;/span&gt;=&lt;span style=&quot;box-sizing: border-box; color: rgb(136, 0, 0); font-weight: 400;&quot;&gt;&quot;menuitem&quot;&lt;/span&gt;&lt;br&gt;                &lt;span style=&quot;box-sizing: border-box; color: rgba(68, 68, 68, 0.667); font-weight: 400;&quot;&gt;onClick&lt;/span&gt;=&lt;span style=&quot;box-sizing: border-box; color: rgb(136, 0, 0); font-weight: 400;&quot;&gt;{()&lt;/span&gt; =&amp;gt;&lt;/span&gt; {&lt;br&gt;                  onClick(i);&lt;br&gt;                  setOpenItem(&quot;&quot;);&lt;br&gt;                }}&lt;br&gt;              &amp;gt;&lt;br&gt;                {i}&lt;br&gt;              &lt;span style=&quot;box-sizing: border-box; color: rgba(68, 68, 68, 0.667); font-weight: 400;&quot;&gt;&amp;lt;/&lt;span style=&quot;box-sizing: border-box; color: rgba(68, 68, 68, 0.667); font-weight: 700;&quot;&gt;button&lt;/span&gt;&amp;gt;&lt;/span&gt;&lt;br&gt;            );&lt;br&gt;          } else {&lt;br&gt;            const [key, value] = Object.entries(i)[0];&lt;br&gt;            return (&lt;br&gt;              &lt;span style=&quot;box-sizing: border-box; color: rgba(68, 68, 68, 0.667); font-weight: 400;&quot;&gt;&amp;lt;&lt;span style=&quot;box-sizing: border-box; color: rgba(68, 68, 68, 0.667); font-weight: 700;&quot;&gt;Dropdown&lt;/span&gt;&lt;br&gt;                &lt;span style=&quot;box-sizing: border-box; color: rgba(68, 68, 68, 0.667); font-weight: 400;&quot;&gt;key&lt;/span&gt;=&lt;span style=&quot;box-sizing: border-box; color: rgb(136, 0, 0); font-weight: 400;&quot;&gt;{key}&lt;/span&gt;&lt;br&gt;                &lt;span style=&quot;box-sizing: border-box; color: rgba(68, 68, 68, 0.667); font-weight: 400;&quot;&gt;items&lt;/span&gt;=&lt;span style=&quot;box-sizing: border-box; color: rgb(136, 0, 0); font-weight: 400;&quot;&gt;{{&lt;/span&gt; [&lt;span style=&quot;box-sizing: border-box; color: rgba(68, 68, 68, 0.667); font-weight: 400;&quot;&gt;key&lt;/span&gt;]&lt;span style=&quot;box-sizing: border-box; color: rgba(68, 68, 68, 0.667); font-weight: 400;&quot;&gt;:&lt;/span&gt; &lt;span style=&quot;box-sizing: border-box; color: rgba(68, 68, 68, 0.667); font-weight: 400;&quot;&gt;value&lt;/span&gt; }}&lt;br&gt;                &lt;span style=&quot;box-sizing: border-box; color: rgba(68, 68, 68, 0.667); font-weight: 400;&quot;&gt;onClick&lt;/span&gt;=&lt;span style=&quot;box-sizing: border-box; color: rgb(136, 0, 0); font-weight: 400;&quot;&gt;{onClick}&lt;/span&gt;&lt;br&gt;                &lt;span style=&quot;box-sizing: border-box; color: rgba(68, 68, 68, 0.667); font-weight: 400;&quot;&gt;buttonClassName&lt;/span&gt;=&lt;span style=&quot;box-sizing: border-box; color: rgb(136, 0, 0); font-weight: 400;&quot;&gt;&quot;menuitem&quot;&lt;/span&gt;&lt;br&gt;              /&amp;gt;&lt;/span&gt;&lt;br&gt;            );&lt;br&gt;          }&lt;br&gt;        })}&lt;br&gt;      &lt;span style=&quot;box-sizing: border-box; color: rgba(68, 68, 68, 0.667); font-weight: 400;&quot;&gt;&amp;lt;/&lt;span style=&quot;box-sizing: border-box; color: rgba(68, 68, 68, 0.667); font-weight: 700;&quot;&gt;div&lt;/span&gt;&amp;gt;&lt;/span&gt;&lt;/span&gt;&lt;span style=&quot;color: rgb(68, 68, 68); font-family: &amp;quot;Lucida Console&amp;quot;, Courier, monospace; font-style: normal; font-variant-ligatures: normal; font-variant-caps: normal; font-weight: 400; letter-spacing: normal; orphans: 2; text-indent: 0px; text-transform: none; widows: 2; word-spacing: 0px; -webkit-text-stroke-width: 0px; white-space: pre; text-decoration-thickness: initial; text-decoration-style: initial; text-decoration-color: initial; float: none; display: inline !important;&quot;&gt;&lt;br&gt;    );&lt;br&gt;  }&lt;/span&gt;&lt;/font&gt;" style="rounded=0;whiteSpace=wrap;html=1;align=left;shadow=1;" vertex="1" parent="1">
          <mxGeometry x="430" y="630" width="400" height="480" as="geometry" />
        </mxCell>
        <mxCell id="NcWsjzNoAgIH2NNssZIe-16" value="&lt;h3 style=&quot;text-align: left;&quot;&gt;Layout&lt;/h3&gt;&lt;div&gt;&lt;ul&gt;&lt;li style=&quot;text-align: left;&quot;&gt;relative to button(menu absolute, button content relative) OR&amp;nbsp;&lt;/li&gt;&lt;li style=&quot;text-align: left;&quot;&gt;relative to page (render outside of DOM w/React Portal)&lt;/li&gt;&lt;/ul&gt;&lt;/div&gt;" style="text;html=1;align=center;verticalAlign=middle;resizable=0;points=[];autosize=1;strokeColor=none;fillColor=none;" vertex="1" parent="1">
          <mxGeometry x="30" y="930" width="390" height="100" as="geometry" />
        </mxCell>
        <mxCell id="NcWsjzNoAgIH2NNssZIe-17" value="&lt;h3 style=&quot;text-align: left;&quot;&gt;Position&lt;/h3&gt;&lt;div&gt;&lt;ul&gt;&lt;li style=&quot;text-align: left;&quot;&gt;check when menu is at the edge (&lt;font face=&quot;Courier New&quot;&gt;getClientRectBounds&lt;/font&gt;)&lt;/li&gt;&lt;li style=&quot;text-align: left;&quot;&gt;use Popper.js&lt;/li&gt;&lt;/ul&gt;&lt;/div&gt;" style="text;html=1;align=center;verticalAlign=middle;resizable=0;points=[];autosize=1;strokeColor=none;fillColor=none;" vertex="1" parent="1">
          <mxGeometry x="35" y="1010" width="380" height="100" as="geometry" />
        </mxCell>
        <mxCell id="NcWsjzNoAgIH2NNssZIe-18" value="&lt;h3&gt;Click outside&lt;/h3&gt;&lt;div&gt;&lt;ul&gt;&lt;li style=&quot;&quot;&gt;register an onclick handler for &lt;font face=&quot;Courier New&quot;&gt;&amp;lt;body&amp;gt;&lt;/font&gt;&lt;/li&gt;&lt;/ul&gt;&lt;/div&gt;" style="text;html=1;align=left;verticalAlign=middle;resizable=0;points=[];autosize=1;strokeColor=none;fillColor=none;" vertex="1" parent="1">
          <mxGeometry x="40" y="1088" width="270" height="90" as="geometry" />
        </mxCell>
        <mxCell id="NcWsjzNoAgIH2NNssZIe-20" value="" style="rounded=0;whiteSpace=wrap;html=1;shadow=1;" vertex="1" parent="1">
          <mxGeometry x="60" y="1160" width="580" height="220" as="geometry" />
        </mxCell>
        <mxCell id="NcWsjzNoAgIH2NNssZIe-19" value="&lt;font style=&quot;font-size: 11px; background-color: light-dark(#ffffff, var(--ge-dark-color, #121212));&quot;&gt;&lt;span style=&quot;box-sizing: border-box; color: rgb(68, 68, 68); font-family: &amp;quot;Lucida Console&amp;quot;, Courier, monospace; white-space-collapse: preserve; font-weight: 700;&quot;&gt;function&lt;/span&gt;&lt;span style=&quot;color: rgb(68, 68, 68); font-family: &amp;quot;Lucida Console&amp;quot;, Courier, monospace; white-space-collapse: preserve;&quot;&gt; &lt;/span&gt;&lt;span style=&quot;box-sizing: border-box; font-family: &amp;quot;Lucida Console&amp;quot;, Courier, monospace; white-space-collapse: preserve; color: rgb(136, 0, 0); font-weight: 700;&quot;&gt;onClickOutside&lt;/span&gt;&lt;span style=&quot;color: rgb(68, 68, 68); font-family: &amp;quot;Lucida Console&amp;quot;, Courier, monospace; white-space-collapse: preserve;&quot;&gt;(&lt;/span&gt;&lt;span style=&quot;box-sizing: border-box; color: rgb(68, 68, 68); font-family: &amp;quot;Lucida Console&amp;quot;, Courier, monospace; white-space-collapse: preserve;&quot;&gt;event&lt;/span&gt;&lt;span style=&quot;color: rgb(68, 68, 68); font-family: &amp;quot;Lucida Console&amp;quot;, Courier, monospace; white-space-collapse: preserve;&quot;&gt;) {&lt;br&gt;  &lt;/span&gt;&lt;span style=&quot;box-sizing: border-box; color: rgb(68, 68, 68); font-family: &amp;quot;Lucida Console&amp;quot;, Courier, monospace; white-space-collapse: preserve; font-weight: 700;&quot;&gt;if&lt;/span&gt;&lt;span style=&quot;color: rgb(68, 68, 68); font-family: &amp;quot;Lucida Console&amp;quot;, Courier, monospace; white-space-collapse: preserve;&quot;&gt; (&lt;br&gt;    $buttonElement.&lt;/span&gt;&lt;span style=&quot;box-sizing: border-box; font-family: &amp;quot;Lucida Console&amp;quot;, Courier, monospace; white-space-collapse: preserve; color: rgb(136, 0, 0); font-weight: 700;&quot;&gt;contains&lt;/span&gt;&lt;span style=&quot;color: rgb(68, 68, 68); font-family: &amp;quot;Lucida Console&amp;quot;, Courier, monospace; white-space-collapse: preserve;&quot;&gt;(event.&lt;/span&gt;&lt;span style=&quot;box-sizing: border-box; color: rgb(68, 68, 68); font-family: &amp;quot;Lucida Console&amp;quot;, Courier, monospace; white-space-collapse: preserve;&quot;&gt;target&lt;/span&gt;&lt;span style=&quot;color: rgb(68, 68, 68); font-family: &amp;quot;Lucida Console&amp;quot;, Courier, monospace; white-space-collapse: preserve;&quot;&gt;) || $menuElement.&lt;/span&gt;&lt;span style=&quot;box-sizing: border-box; font-family: &amp;quot;Lucida Console&amp;quot;, Courier, monospace; white-space-collapse: preserve; color: rgb(136, 0, 0); font-weight: 700;&quot;&gt;contains&lt;/span&gt;&lt;span style=&quot;color: rgb(68, 68, 68); font-family: &amp;quot;Lucida Console&amp;quot;, Courier, monospace; white-space-collapse: preserve;&quot;&gt;(event.&lt;/span&gt;&lt;span style=&quot;box-sizing: border-box; color: rgb(68, 68, 68); font-family: &amp;quot;Lucida Console&amp;quot;, Courier, monospace; white-space-collapse: preserve;&quot;&gt;target&lt;/span&gt;&lt;span style=&quot;color: rgb(68, 68, 68); font-family: &amp;quot;Lucida Console&amp;quot;, Courier, monospace; white-space-collapse: preserve;&quot;&gt;)&lt;br&gt;  ) &lt;/span&gt;&lt;span style=&quot;box-sizing: border-box; color: rgb(68, 68, 68); font-family: &amp;quot;Lucida Console&amp;quot;, Courier, monospace; white-space-collapse: preserve; font-weight: 700;&quot;&gt;return&lt;/span&gt;&lt;span style=&quot;color: rgb(68, 68, 68); font-family: &amp;quot;Lucida Console&amp;quot;, Courier, monospace; white-space-collapse: preserve;&quot;&gt;&lt;br&gt;&lt;br&gt;  &lt;/span&gt;&lt;span style=&quot;box-sizing: border-box; font-family: &amp;quot;Lucida Console&amp;quot;, Courier, monospace; white-space-collapse: preserve; color: rgb(136, 0, 0); font-weight: 700;&quot;&gt;closeMenu&lt;/span&gt;&lt;span style=&quot;color: rgb(68, 68, 68); font-family: &amp;quot;Lucida Console&amp;quot;, Courier, monospace; white-space-collapse: preserve;&quot;&gt;();&lt;br&gt;}&lt;br&gt;&lt;br&gt;&lt;/span&gt;&lt;span style=&quot;box-sizing: border-box; font-family: &amp;quot;Lucida Console&amp;quot;, Courier, monospace; white-space-collapse: preserve; color: rgb(171, 86, 86);&quot;&gt;document&lt;/span&gt;&lt;span style=&quot;color: rgb(68, 68, 68); font-family: &amp;quot;Lucida Console&amp;quot;, Courier, monospace; white-space-collapse: preserve;&quot;&gt;.&lt;/span&gt;&lt;span style=&quot;box-sizing: border-box; font-family: &amp;quot;Lucida Console&amp;quot;, Courier, monospace; white-space-collapse: preserve; color: rgb(136, 0, 0); font-weight: 700;&quot;&gt;addEventListener&lt;/span&gt;&lt;span style=&quot;color: rgb(68, 68, 68); font-family: &amp;quot;Lucida Console&amp;quot;, Courier, monospace; white-space-collapse: preserve;&quot;&gt;(&lt;/span&gt;&lt;span style=&quot;box-sizing: border-box; font-family: &amp;quot;Lucida Console&amp;quot;, Courier, monospace; white-space-collapse: preserve; color: rgb(136, 0, 0);&quot;&gt;&#39;mousedown&#39;&lt;/span&gt;&lt;span style=&quot;color: rgb(68, 68, 68); font-family: &amp;quot;Lucida Console&amp;quot;, Courier, monospace; white-space-collapse: preserve;&quot;&gt;, onClickOutside);&lt;br&gt;&lt;/span&gt;&lt;span style=&quot;box-sizing: border-box; font-family: &amp;quot;Lucida Console&amp;quot;, Courier, monospace; white-space-collapse: preserve; color: rgb(171, 86, 86);&quot;&gt;document&lt;/span&gt;&lt;span style=&quot;color: rgb(68, 68, 68); font-family: &amp;quot;Lucida Console&amp;quot;, Courier, monospace; white-space-collapse: preserve;&quot;&gt;.&lt;/span&gt;&lt;span style=&quot;box-sizing: border-box; font-family: &amp;quot;Lucida Console&amp;quot;, Courier, monospace; white-space-collapse: preserve; color: rgb(136, 0, 0); font-weight: 700;&quot;&gt;addEventListener&lt;/span&gt;&lt;span style=&quot;color: rgb(68, 68, 68); font-family: &amp;quot;Lucida Console&amp;quot;, Courier, monospace; white-space-collapse: preserve;&quot;&gt;(&lt;/span&gt;&lt;span style=&quot;box-sizing: border-box; font-family: &amp;quot;Lucida Console&amp;quot;, Courier, monospace; white-space-collapse: preserve; color: rgb(136, 0, 0);&quot;&gt;&#39;touchstart&#39;&lt;/span&gt;&lt;span style=&quot;color: rgb(68, 68, 68); font-family: &amp;quot;Lucida Console&amp;quot;, Courier, monospace; white-space-collapse: preserve;&quot;&gt;, onClickOutside);&lt;br&gt;&lt;br&gt;&lt;/span&gt;&lt;span style=&quot;box-sizing: border-box; font-family: &amp;quot;Lucida Console&amp;quot;, Courier, monospace; white-space-collapse: preserve; color: rgb(105, 112, 112);&quot;&gt;// document.removeEventListener(&#39;mousedown&#39;, onClickOutside);&lt;/span&gt;&lt;span style=&quot;color: rgb(68, 68, 68); font-family: &amp;quot;Lucida Console&amp;quot;, Courier, monospace; white-space-collapse: preserve;&quot;&gt;&lt;br&gt;&lt;/span&gt;&lt;span style=&quot;box-sizing: border-box; font-family: &amp;quot;Lucida Console&amp;quot;, Courier, monospace; white-space-collapse: preserve; color: rgb(105, 112, 112);&quot;&gt;// document.removeEventListener(&#39;touchstart&#39;, onClickOutside);&lt;/span&gt;&lt;/font&gt;" style="text;html=1;align=left;verticalAlign=middle;resizable=0;points=[];autosize=1;strokeColor=none;fillColor=none;" vertex="1" parent="1">
          <mxGeometry x="70" y="1170" width="550" height="200" as="geometry" />
        </mxCell>
        <mxCell id="NcWsjzNoAgIH2NNssZIe-21" value="&lt;h3&gt;a118N&lt;/h3&gt;&lt;div style=&quot;&quot;&gt;&lt;ul&gt;&lt;li style=&quot;text-align: left;&quot;&gt;ARIA menubutton + menu pattern&lt;/li&gt;&lt;ul&gt;&lt;li style=&quot;text-align: left;&quot;&gt;arrows, Enter, Escape...&lt;/li&gt;&lt;/ul&gt;&lt;/ul&gt;&lt;/div&gt;" style="text;html=1;align=center;verticalAlign=middle;resizable=0;points=[];autosize=1;strokeColor=none;fillColor=none;" vertex="1" parent="1">
          <mxGeometry x="610" y="1170" width="240" height="100" as="geometry" />
        </mxCell>
        <mxCell id="NcWsjzNoAgIH2NNssZIe-22" value="&lt;h3&gt;i!8N&lt;/h3&gt;&lt;div style=&quot;&quot;&gt;&lt;ul&gt;&lt;li style=&quot;text-align: left;&quot;&gt;text overflow&lt;/li&gt;&lt;li style=&quot;text-align: left;&quot;&gt;RTL&lt;/li&gt;&lt;/ul&gt;&lt;/div&gt;" style="text;html=1;align=center;verticalAlign=middle;resizable=0;points=[];autosize=1;strokeColor=none;fillColor=none;" vertex="1" parent="1">
          <mxGeometry x="665" y="1273" width="130" height="100" as="geometry" />
        </mxCell>
      </root>
    </mxGraphModel>
  </diagram>
</mxfile>
